<?xml version="1.0" encoding="iso-8859-1"?>
<!-- Generator: Adobe Illustrator 18.1.1, SVG Export Plug-In . SVG Version: 6.00 Build 0)  -->
<svg version="1.1" id="Capa_1" xmlns="http://www.w3.org/2000/svg" xmlns:xlink="http://www.w3.org/1999/xlink" x="0px" y="0px"
	 viewBox="0 0 612.002 612.002" style="enable-background:new 0 0 612.002 612.002;" xml:space="preserve">
<g>
	<path d="M595.905,119.929H417.056V62.811c0-11.395-9.239-20.633-20.628-20.633H215.58c-11.395,0-20.635,9.239-20.635,20.633v57.117
		H16.097C7.205,119.929,0,127.132,0,136.022v400.33c0,8.892,7.205,16.097,16.097,16.097h49.544v13.88
		c0,1.932,1.564,3.495,3.493,3.495h41.668c1.929,0,3.493-1.562,3.493-3.495v-13.88h383.415v13.88c0,1.932,1.562,3.495,3.491,3.495
		h41.67c1.929,0,3.491-1.562,3.491-3.495v-13.88h49.546c8.891,0,16.095-7.205,16.095-16.097v-400.33
		C612,127.132,604.796,119.929,595.905,119.929z M240.013,87.243h131.976v32.686H240.013V87.243z"/>
</g>
<g>
</g>
<g>
</g>
<g>
</g>
<g>
</g>
<g>
</g>
<g>
</g>
<g>
</g>
<g>
</g>
<g>
</g>
<g>
</g>
<g>
</g>
<g>
</g>
<g>
</g>
<g>
</g>
<g>
</g>
</svg>
